<?xml version="1.0" encoding="UTF-8" standalone="no"?>
<!DOCTYPE svg PUBLIC "-//W3C//DTD SVG 1.1//EN"
 "http://www.w3.org/Graphics/SVG/1.1/DTD/svg11.dtd">
<!-- Generated by graphviz version 2.30.1 (20180828.1746)
 -->
<!-- Title: %3 Pages: 1 -->
<svg width="618pt" height="174pt"
 viewBox="0.00 0.00 618.00 174.00" xmlns="http://www.w3.org/2000/svg" xmlns:xlink="http://www.w3.org/1999/xlink">
<g id="graph0" class="graph" transform="scale(1 1) rotate(0) translate(4 170)">
<title>%3</title>
<polygon fill="white" stroke="white" points="-4,5 -4,-170 615,-170 615,5 -4,5"/>
<!-- ADC -->
<g id="node1" class="node"><title>ADC</title>
<ellipse fill="none" stroke="black" cx="29" cy="-72" rx="29.4969" ry="18"/>
<text text-anchor="middle" x="29" y="-68.3" font-family="Times,serif" font-size="14.00">ADC</text>
</g>
<!-- MCU -->
<g id="node2" class="node"><title>MCU</title>
<ellipse fill="none" stroke="black" cx="164" cy="-72" rx="31.3957" ry="18"/>
<text text-anchor="middle" x="164" y="-68.3" font-family="Times,serif" font-size="14.00">MCU</text>
</g>
<!-- ADC&#45;&gt;MCU -->
<g id="edge1" class="edge"><title>ADC&#45;&gt;MCU</title>
<path fill="none" stroke="black" d="M58.5318,-72C77.2065,-72 101.889,-72 122.573,-72"/>
<polygon fill="black" stroke="black" points="122.666,-75.5001 132.666,-72 122.665,-68.5001 122.666,-75.5001"/>
<text text-anchor="middle" x="86" y="-75.8" font-family="Times,serif" font-size="14.00">SPI</text>
</g>
<!-- ESP32 -->
<g id="node3" class="node"><title>ESP32</title>
<ellipse fill="none" stroke="black" cx="371" cy="-137" rx="34.394" ry="18"/>
<text text-anchor="middle" x="371" y="-133.3" font-family="Times,serif" font-size="14.00">ESP32</text>
</g>
<!-- MCU&#45;&gt;ESP32 -->
<g id="edge2" class="edge"><title>MCU&#45;&gt;ESP32</title>
<path fill="none" stroke="black" d="M191.8,-80.4976C227.494,-91.8152 290.86,-111.907 331.619,-124.83"/>
<polygon fill="black" stroke="black" points="330.622,-128.186 341.212,-127.872 332.738,-121.513 330.622,-128.186"/>
<text text-anchor="middle" x="273" y="-121.8" font-family="Times,serif" font-size="14.00">SPI</text>
</g>
<!-- DAC -->
<g id="node4" class="node"><title>DAC</title>
<ellipse fill="none" stroke="black" cx="371" cy="-72" rx="29.4969" ry="18"/>
<text text-anchor="middle" x="371" y="-68.3" font-family="Times,serif" font-size="14.00">DAC</text>
</g>
<!-- MCU&#45;&gt;DAC -->
<g id="edge3" class="edge"><title>MCU&#45;&gt;DAC</title>
<path fill="none" stroke="black" d="M195.248,-72C231.441,-72 292.087,-72 331.566,-72"/>
<polygon fill="black" stroke="black" points="331.61,-75.5001 341.61,-72 331.61,-68.5001 331.61,-75.5001"/>
<text text-anchor="middle" x="273" y="-75.8" font-family="Times,serif" font-size="14.00">SPI</text>
</g>
<!-- FLASH -->
<g id="node7" class="node"><title>FLASH</title>
<ellipse fill="none" stroke="#cccccc" cx="371" cy="-18" rx="38.1938" ry="18"/>
<text text-anchor="middle" x="371" y="-14.3" font-family="Times,serif" font-size="14.00">FLASH</text>
</g>
<!-- MCU&#45;&gt;FLASH -->
<g id="edge4" class="edge"><title>MCU&#45;&gt;FLASH</title>
<path fill="none" stroke="black" d="M202.116,-61.2749C211.827,-58.5237 222.294,-55.6066 232,-53 263.645,-44.502 299.521,-35.4198 326.76,-28.6372"/>
<polygon fill="black" stroke="black" points="200.993,-57.9556 192.335,-64.0618 202.911,-64.6877 200.993,-57.9556"/>
<polygon fill="black" stroke="black" points="327.889,-31.9634 336.75,-26.1564 326.202,-25.1697 327.889,-31.9634"/>
<text text-anchor="middle" x="273" y="-56.8" font-family="Times,serif" font-size="14.00">SPI?</text>
</g>
<!-- BT_sink -->
<g id="node6" class="node"><title>BT_sink</title>
<ellipse fill="none" stroke="black" cx="569" cy="-137" rx="40.8928" ry="18"/>
<text text-anchor="middle" x="569" y="-133.3" font-family="Times,serif" font-size="14.00">BT_sink</text>
</g>
<!-- ESP32&#45;&gt;BT_sink -->
<g id="edge5" class="edge"><title>ESP32&#45;&gt;BT_sink</title>
<path fill="none" stroke="black" d="M405.694,-137C436.575,-137 482.71,-137 517.909,-137"/>
<polygon fill="black" stroke="black" points="517.988,-140.5 527.987,-137 517.987,-133.5 517.988,-140.5"/>
<text text-anchor="middle" x="469" y="-140.8" font-family="Times,serif" font-size="14.00">bluetooth EDR</text>
</g>
<!-- BT_source -->
<g id="node5" class="node"><title>BT_source</title>
<ellipse fill="none" stroke="black" cx="164" cy="-148" rx="49.2915" ry="18"/>
<text text-anchor="middle" x="164" y="-144.3" font-family="Times,serif" font-size="14.00">BT_source</text>
</g>
<!-- BT_source&#45;&gt;ESP32 -->
<g id="edge6" class="edge"><title>BT_source&#45;&gt;ESP32</title>
<path fill="none" stroke="black" d="M213.063,-145.421C247.342,-143.582 293.063,-141.128 326.309,-139.344"/>
<polygon fill="black" stroke="black" points="326.837,-142.821 336.635,-138.79 326.461,-135.831 326.837,-142.821"/>
<text text-anchor="middle" x="273" y="-147.8" font-family="Times,serif" font-size="14.00">bluetooth EDR</text>
</g>
</g>
</svg>
