<?xml version="1.0" encoding="UTF-8" standalone="no"?>
<!DOCTYPE svg PUBLIC "-//W3C//DTD SVG 1.1//EN"
 "http://www.w3.org/Graphics/SVG/1.1/DTD/svg11.dtd">
<!-- Generated by graphviz version 2.30.1 (20180828.1746)
 -->
<!-- Title: %3 Pages: 1 -->
<svg width="224pt" height="308pt"
 viewBox="0.00 0.00 224.00 308.00" xmlns="http://www.w3.org/2000/svg" xmlns:xlink="http://www.w3.org/1999/xlink">
<g id="graph0" class="graph" transform="scale(1 1) rotate(0) translate(4 304)">
<title>%3</title>
<polygon fill="white" stroke="white" points="-4,5 -4,-304 221,-304 221,5 -4,5"/>
<!-- ADC -->
<g id="node1" class="node"><title>ADC</title>
<ellipse fill="none" stroke="black" cx="94" cy="-282" rx="29.3722" ry="18"/>
<text text-anchor="middle" x="94" y="-278.3" font-family="Times,serif" font-size="14.00">ADC</text>
</g>
<!-- MCU -->
<g id="node2" class="node"><title>MCU</title>
<ellipse fill="none" stroke="black" cx="94" cy="-194" rx="31.2965" ry="18"/>
<text text-anchor="middle" x="94" y="-190.3" font-family="Times,serif" font-size="14.00">MCU</text>
</g>
<!-- ADC&#45;&gt;MCU -->
<g id="edge1" class="edge"><title>ADC&#45;&gt;MCU</title>
<path fill="none" stroke="black" d="M94,-263.597C94,-251.746 94,-235.817 94,-222.292"/>
<polygon fill="black" stroke="black" points="97.5001,-222.084 94,-212.084 90.5001,-222.084 97.5001,-222.084"/>
<text text-anchor="middle" x="104" y="-234.3" font-family="Times,serif" font-size="14.00">SPI</text>
</g>
<!-- ESP32 -->
<g id="node3" class="node"><title>ESP32</title>
<ellipse fill="none" stroke="black" cx="94" cy="-106" rx="34.1708" ry="18"/>
<text text-anchor="middle" x="94" y="-102.3" font-family="Times,serif" font-size="14.00">ESP32</text>
</g>
<!-- MCU&#45;&gt;ESP32 -->
<g id="edge2" class="edge"><title>MCU&#45;&gt;ESP32</title>
<path fill="none" stroke="black" d="M94,-175.597C94,-163.746 94,-147.817 94,-134.292"/>
<polygon fill="black" stroke="black" points="97.5001,-134.084 94,-124.084 90.5001,-134.084 97.5001,-134.084"/>
<text text-anchor="middle" x="104" y="-146.3" font-family="Times,serif" font-size="14.00">SPI</text>
</g>
<!-- BT_sink -->
<g id="node5" class="node"><title>BT_sink</title>
<ellipse fill="none" stroke="black" cx="40" cy="-18" rx="40.4202" ry="18"/>
<text text-anchor="middle" x="40" y="-14.3" font-family="Times,serif" font-size="14.00">BT_sink</text>
</g>
<!-- ESP32&#45;&gt;BT_sink -->
<g id="edge3" class="edge"><title>ESP32&#45;&gt;BT_sink</title>
<path fill="none" stroke="black" d="M69.1429,-93.5514C59.6456,-87.8614 49.7305,-80.0277 44,-70 39.9556,-62.9227 38.297,-54.3647 37.8334,-46.2975"/>
<polygon fill="black" stroke="black" points="41.3332,-46.1334 37.8122,-36.1408 34.3332,-46.1481 41.3332,-46.1334"/>
<text text-anchor="middle" x="85" y="-58.3" font-family="Times,serif" font-size="14.00">bluetooth EDR</text>
</g>
<!-- BT_source -->
<g id="node6" class="node"><title>BT_source</title>
<ellipse fill="none" stroke="black" cx="148" cy="-18" rx="49.0941" ry="18"/>
<text text-anchor="middle" x="148" y="-14.3" font-family="Times,serif" font-size="14.00">BT_source</text>
</g>
<!-- ESP32&#45;&gt;BT_source -->
<g id="edge4" class="edge"><title>ESP32&#45;&gt;BT_source</title>
<path fill="none" stroke="black" d="M109.858,-89.8975C115.434,-84.0411 121.44,-77.0523 126,-70 130.839,-62.516 135.051,-53.7885 138.459,-45.6909"/>
<polygon fill="black" stroke="black" points="141.769,-46.8379 142.204,-36.252 135.263,-44.256 141.769,-46.8379"/>
<text text-anchor="middle" x="175" y="-58.3" font-family="Times,serif" font-size="14.00">bluetooth EDR</text>
</g>
<!-- DAC -->
<g id="node4" class="node"><title>DAC</title>
<ellipse fill="none" stroke="black" cx="170" cy="-282" rx="29.3722" ry="18"/>
<text text-anchor="middle" x="170" y="-278.3" font-family="Times,serif" font-size="14.00">DAC</text>
</g>
</g>
</svg>
