<?xml version="1.0" encoding="UTF-8" standalone="no"?>
<!DOCTYPE svg PUBLIC "-//W3C//DTD SVG 1.1//EN"
 "http://www.w3.org/Graphics/SVG/1.1/DTD/svg11.dtd">
<!-- Generated by graphviz version 2.30.1 (20180828.1746)
 -->
<!-- Title: %3 Pages: 1 -->
<svg width="1364pt" height="294pt"
 viewBox="0.00 0.00 1364.00 294.00" xmlns="http://www.w3.org/2000/svg" xmlns:xlink="http://www.w3.org/1999/xlink">
<g id="graph0" class="graph" transform="scale(1 1) rotate(0) translate(4 290)">
<title>%3</title>
<polygon fill="white" stroke="white" points="-4,5 -4,-290 1361,-290 1361,5 -4,5"/>
<!-- OPAMP0 -->
<g id="node1" class="node"><title>OPAMP0</title>
<ellipse fill="none" stroke="black" cx="46" cy="-260" rx="46.2923" ry="18"/>
<text text-anchor="middle" x="46" y="-256.3" font-family="Times,serif" font-size="14.00">OPAMP0</text>
</g>
<!-- ADC -->
<g id="node3" class="node"><title>ADC</title>
<ellipse fill="none" stroke="black" cx="159" cy="-207" rx="29.4969" ry="18"/>
<text text-anchor="middle" x="159" y="-203.3" font-family="Times,serif" font-size="14.00">ADC</text>
</g>
<!-- OPAMP0&#45;&gt;ADC -->
<g id="edge1" class="edge"><title>OPAMP0&#45;&gt;ADC</title>
<path fill="none" stroke="black" d="M75.8742,-246.213C91.1944,-238.898 110.062,-229.889 125.848,-222.352"/>
<polygon fill="black" stroke="black" points="127.703,-225.345 135.219,-217.877 124.687,-219.028 127.703,-225.345"/>
</g>
<!-- OPAMP1 -->
<g id="node2" class="node"><title>OPAMP1</title>
<ellipse fill="none" stroke="black" cx="759" cy="-118" rx="46.2923" ry="18"/>
<text text-anchor="middle" x="759" y="-114.3" font-family="Times,serif" font-size="14.00">OPAMP1</text>
</g>
<!-- JACK1 -->
<g id="node9" class="node"><title>JACK1</title>
<ellipse fill="none" stroke="black" cx="946" cy="-155" rx="87.9851" ry="18"/>
<text text-anchor="middle" x="946" y="-151.3" font-family="Times,serif" font-size="14.00">jack1 (6.35 mm jack)</text>
</g>
<!-- OPAMP1&#45;&gt;JACK1 -->
<g id="edge7" class="edge"><title>OPAMP1&#45;&gt;JACK1</title>
<path fill="none" stroke="black" d="M800.599,-126.12C821.726,-130.345 848.194,-135.639 872.679,-140.536"/>
<polygon fill="black" stroke="black" points="872.175,-144.004 882.668,-142.534 873.548,-137.14 872.175,-144.004"/>
</g>
<!-- MCU -->
<g id="node4" class="node"><title>MCU</title>
<ellipse fill="none" stroke="black" cx="314" cy="-107" rx="31.3957" ry="18"/>
<text text-anchor="middle" x="314" y="-103.3" font-family="Times,serif" font-size="14.00">MCU</text>
</g>
<!-- ADC&#45;&gt;MCU -->
<g id="edge3" class="edge"><title>ADC&#45;&gt;MCU</title>
<path fill="none" stroke="black" d="M179.689,-194.131C206.134,-176.847 253.328,-146.001 283.884,-126.03"/>
<polygon fill="black" stroke="black" points="285.955,-128.858 292.41,-120.457 282.125,-122.999 285.955,-128.858"/>
<text text-anchor="middle" x="216" y="-177.8" font-family="Times,serif" font-size="14.00">SPI</text>
</g>
<!-- DAC -->
<g id="node6" class="node"><title>DAC</title>
<ellipse fill="none" stroke="black" cx="541" cy="-83" rx="29.4969" ry="18"/>
<text text-anchor="middle" x="541" y="-79.3" font-family="Times,serif" font-size="14.00">DAC</text>
</g>
<!-- MCU&#45;&gt;DAC -->
<g id="edge4" class="edge"><title>MCU&#45;&gt;DAC</title>
<path fill="none" stroke="black" d="M343.02,-100.009C359.978,-96.0778 382.102,-91.4747 402,-89 435.446,-84.8403 473.762,-83.4395 501.52,-83.0221"/>
<polygon fill="black" stroke="black" points="501.65,-86.521 511.609,-82.9066 501.57,-79.5214 501.65,-86.521"/>
<text text-anchor="middle" x="443" y="-92.8" font-family="Times,serif" font-size="14.00">SPI</text>
</g>
<!-- ESP32 -->
<g id="node5" class="node"><title>ESP32</title>
<ellipse fill="none" stroke="black" cx="541" cy="-202" rx="34.394" ry="18"/>
<text text-anchor="middle" x="541" y="-198.3" font-family="Times,serif" font-size="14.00">ESP32</text>
</g>
<!-- MCU&#45;&gt;ESP32 -->
<g id="edge5" class="edge"><title>MCU&#45;&gt;ESP32</title>
<path fill="none" stroke="black" d="M349.531,-121.086C365.471,-127.538 384.667,-135.238 402,-142 438.297,-156.161 448.419,-157.126 484,-173 491.748,-176.457 499.937,-180.478 507.589,-184.405"/>
<polygon fill="black" stroke="black" points="350.654,-117.764 340.072,-117.249 348.023,-124.251 350.654,-117.764"/>
<polygon fill="black" stroke="black" points="506.107,-187.58 516.592,-189.105 509.347,-181.374 506.107,-187.58"/>
<text text-anchor="middle" x="443" y="-176.8" font-family="Times,serif" font-size="14.00">SPI</text>
</g>
<!-- FLASH -->
<g id="node7" class="node"><title>FLASH</title>
<ellipse fill="none" stroke="black" cx="541" cy="-137" rx="38.1938" ry="18"/>
<text text-anchor="middle" x="541" y="-133.3" font-family="Times,serif" font-size="14.00">FLASH</text>
</g>
<!-- MCU&#45;&gt;FLASH -->
<g id="edge6" class="edge"><title>MCU&#45;&gt;FLASH</title>
<path fill="none" stroke="black" d="M355.082,-111.071C389.381,-114.715 440.034,-120.479 484,-127 487.633,-127.539 491.392,-128.132 495.164,-128.753"/>
<polygon fill="black" stroke="black" points="355.299,-107.575 344.988,-110.01 354.567,-114.536 355.299,-107.575"/>
<polygon fill="black" stroke="black" points="494.656,-132.217 505.101,-130.44 495.828,-125.315 494.656,-132.217"/>
<text text-anchor="middle" x="443" y="-130.8" font-family="Times,serif" font-size="14.00">SPI?</text>
</g>
<!-- PC -->
<g id="node14" class="node"><title>PC</title>
<ellipse fill="none" stroke="#cccccc" cx="541" cy="-18" rx="27" ry="18"/>
<text text-anchor="middle" x="541" y="-14.3" font-family="Times,serif" font-size="14.00">PC</text>
</g>
<!-- MCU&#45;&gt;PC -->
<g id="edge15" class="edge"><title>MCU&#45;&gt;PC</title>
<path fill="none" stroke="black" d="M346.59,-90.0799C362.892,-81.6852 383.245,-71.7181 402,-64 436.84,-49.6629 477.937,-36.4146 506.167,-27.8547"/>
<polygon fill="black" stroke="black" points="344.756,-87.0889 337.503,-94.8119 347.989,-93.2975 344.756,-87.0889"/>
<polygon fill="black" stroke="black" points="507.378,-31.1457 515.951,-24.9199 505.367,-24.4409 507.378,-31.1457"/>
<text text-anchor="middle" x="443" y="-67.8" font-family="Times,serif" font-size="14.00">ethernet</text>
</g>
<!-- MCU&#45;&gt;PC -->
<g id="edge16" class="edge"><title>MCU&#45;&gt;PC</title>
<path fill="none" stroke="black" d="M330.744,-81.3912C345.915,-59.398 371.087,-29.2132 402,-16 434.966,-1.90903 476.539,-4.97285 505.396,-9.95204"/>
<polygon fill="black" stroke="black" points="327.676,-79.6842 325.054,-89.9495 333.506,-83.5598 327.676,-79.6842"/>
<polygon fill="black" stroke="black" points="504.936,-13.4271 515.412,-11.8449 506.236,-6.54885 504.936,-13.4271"/>
<text text-anchor="middle" x="443" y="-19.8" font-family="Times,serif" font-size="14.00">USB</text>
</g>
<!-- BT_sink -->
<g id="node12" class="node"><title>BT_sink</title>
<ellipse fill="none" stroke="#cccccc" cx="759" cy="-202" rx="61.1893" ry="18"/>
<text text-anchor="middle" x="759" y="-198.3" font-family="Times,serif" font-size="14.00">BT audio sink</text>
</g>
<!-- ESP32&#45;&gt;BT_sink -->
<g id="edge12" class="edge"><title>ESP32&#45;&gt;BT_sink</title>
<path fill="none" stroke="black" d="M575.75,-202C605.467,-202 649.72,-202 687.178,-202"/>
<polygon fill="black" stroke="black" points="687.545,-205.5 697.545,-202 687.545,-198.5 687.545,-205.5"/>
<text text-anchor="middle" x="639" y="-205.8" font-family="Times,serif" font-size="14.00">bluetooth EDR</text>
</g>
<!-- DAC&#45;&gt;OPAMP1 -->
<g id="edge2" class="edge"><title>DAC&#45;&gt;OPAMP1</title>
<path fill="none" stroke="black" d="M569.357,-87.4328C603.618,-92.9843 663.035,-102.612 706.046,-109.582"/>
<polygon fill="black" stroke="black" points="705.622,-113.058 716.053,-111.203 706.741,-106.148 705.622,-113.058"/>
</g>
<!-- JACK0 -->
<g id="node8" class="node"><title>JACK0</title>
<ellipse fill="none" stroke="black" cx="1268" cy="-238" rx="87.9851" ry="18"/>
<text text-anchor="middle" x="1268" y="-234.3" font-family="Times,serif" font-size="14.00">jack0 (6.35 mm jack)</text>
</g>
<!-- JACK0&#45;&gt;OPAMP0 -->
<g id="edge8" class="edge"><title>JACK0&#45;&gt;OPAMP0</title>
<path fill="none" stroke="black" d="M1232.85,-254.653C1201.24,-268.517 1152.55,-286 1108,-286 158,-286 158,-286 158,-286 135.208,-286 110.46,-280.739 90.1286,-274.95"/>
<polygon fill="black" stroke="black" points="91.1135,-271.592 80.5302,-272.087 89.1123,-278.299 91.1135,-271.592"/>
</g>
<!-- AMP -->
<g id="node11" class="node"><title>AMP</title>
<ellipse fill="none" stroke="#cccccc" cx="1107" cy="-180" rx="27" ry="18"/>
<text text-anchor="middle" x="1107" y="-176.3" font-family="Times,serif" font-size="14.00">amp</text>
</g>
<!-- JACK1&#45;&gt;AMP -->
<g id="edge13" class="edge"><title>JACK1&#45;&gt;AMP</title>
<path fill="none" stroke="black" d="M1016.28,-165.893C1034.95,-168.829 1054.39,-171.885 1070.38,-174.399"/>
<polygon fill="black" stroke="black" points="1069.92,-177.87 1080.34,-175.966 1071.01,-170.955 1069.92,-177.87"/>
</g>
<!-- PICKUP -->
<g id="node10" class="node"><title>PICKUP</title>
<ellipse fill="none" stroke="#cccccc" cx="1107" cy="-238" rx="34.394" ry="18"/>
<text text-anchor="middle" x="1107" y="-234.3" font-family="Times,serif" font-size="14.00">pickup</text>
</g>
<!-- PICKUP&#45;&gt;JACK0 -->
<g id="edge10" class="edge"><title>PICKUP&#45;&gt;JACK0</title>
<path fill="none" stroke="black" d="M1141.72,-238C1150.27,-238 1159.88,-238 1169.89,-238"/>
<polygon fill="black" stroke="black" points="1170.01,-241.5 1180.01,-238 1170.01,-234.5 1170.01,-241.5"/>
</g>
<!-- AMP&#45;&gt;JACK0 -->
<g id="edge11" class="edge"><title>AMP&#45;&gt;JACK0</title>
<path fill="none" stroke="black" d="M1131.12,-188.434C1152.85,-196.359 1186.15,-208.507 1214.35,-218.793"/>
<polygon fill="black" stroke="black" points="1213.48,-222.204 1224.08,-222.343 1215.88,-215.628 1213.48,-222.204"/>
</g>
<!-- BT_source -->
<g id="node13" class="node"><title>BT_source</title>
<ellipse fill="none" stroke="#cccccc" cx="314" cy="-240" rx="69.5877" ry="18"/>
<text text-anchor="middle" x="314" y="-236.3" font-family="Times,serif" font-size="14.00">BT audio source</text>
</g>
<!-- BT_source&#45;&gt;ESP32 -->
<g id="edge9" class="edge"><title>BT_source&#45;&gt;ESP32</title>
<path fill="none" stroke="black" d="M377.861,-232.652C409.784,-228.521 449.099,-222.822 484,-216 489.348,-214.955 494.951,-213.722 500.458,-212.428"/>
<polygon fill="black" stroke="black" points="501.304,-215.825 510.194,-210.062 499.65,-209.023 501.304,-215.825"/>
<text text-anchor="middle" x="443" y="-231.8" font-family="Times,serif" font-size="14.00">bluetooth EDR</text>
</g>
<!-- SMARTPHONE -->
<g id="node15" class="node"><title>SMARTPHONE</title>
<ellipse fill="none" stroke="#cccccc" cx="314" cy="-186" rx="51.9908" ry="18"/>
<text text-anchor="middle" x="314" y="-182.3" font-family="Times,serif" font-size="14.00">smartphone</text>
</g>
<!-- SMARTPHONE&#45;&gt;ESP32 -->
<g id="edge14" class="edge"><title>SMARTPHONE&#45;&gt;ESP32</title>
<path fill="none" stroke="black" d="M375.362,-190.292C413.544,-193.008 462.014,-196.454 496.452,-198.903"/>
<polygon fill="black" stroke="black" points="375.437,-186.789 365.214,-189.571 374.941,-193.771 375.437,-186.789"/>
<polygon fill="black" stroke="black" points="496.439,-202.411 506.662,-199.629 496.935,-195.429 496.439,-202.411"/>
<text text-anchor="middle" x="443" y="-200.8" font-family="Times,serif" font-size="14.00">BLE</text>
</g>
</g>
</svg>
