<?xml version="1.0" encoding="UTF-8" standalone="no"?>
<!DOCTYPE svg PUBLIC "-//W3C//DTD SVG 1.1//EN"
 "http://www.w3.org/Graphics/SVG/1.1/DTD/svg11.dtd">
<!-- Generated by graphviz version 2.30.1 (20180828.1746)
 -->
<!-- Title: %3 Pages: 1 -->
<svg width="1390pt" height="326pt"
 viewBox="0.00 0.00 1390.00 326.00" xmlns="http://www.w3.org/2000/svg" xmlns:xlink="http://www.w3.org/1999/xlink">
<g id="graph0" class="graph" transform="scale(1 1) rotate(0) translate(4 322)">
<title>%3</title>
<polygon fill="white" stroke="white" points="-4,5 -4,-322 1387,-322 1387,5 -4,5"/>
<!-- OPAMP -->
<g id="node1" class="node"><title>OPAMP</title>
<ellipse fill="none" stroke="black" cx="42" cy="-117" rx="41.6928" ry="18"/>
<text text-anchor="middle" x="42" y="-113.3" font-family="Times,serif" font-size="14.00">OPAMP</text>
</g>
<!-- ADC -->
<g id="node2" class="node"><title>ADC</title>
<ellipse fill="none" stroke="black" cx="42" cy="-171" rx="29.4969" ry="18"/>
<text text-anchor="middle" x="42" y="-167.3" font-family="Times,serif" font-size="14.00">ADC</text>
</g>
<!-- MCU -->
<g id="node3" class="node"><title>MCU</title>
<ellipse fill="none" stroke="black" cx="210" cy="-113" rx="31.3957" ry="18"/>
<text text-anchor="middle" x="210" y="-109.3" font-family="Times,serif" font-size="14.00">MCU</text>
</g>
<!-- ADC&#45;&gt;MCU -->
<g id="edge3" class="edge"><title>ADC&#45;&gt;MCU</title>
<path fill="none" stroke="black" d="M67.8519,-162.317C95.7637,-152.564 141.307,-136.652 173.087,-125.548"/>
<polygon fill="black" stroke="black" points="174.595,-128.728 182.881,-122.126 172.286,-122.12 174.595,-128.728"/>
<text text-anchor="middle" x="112" y="-151.8" font-family="Times,serif" font-size="14.00">SPI</text>
</g>
<!-- DAC -->
<g id="node5" class="node"><title>DAC</title>
<ellipse fill="none" stroke="black" cx="437" cy="-74" rx="29.4969" ry="18"/>
<text text-anchor="middle" x="437" y="-70.3" font-family="Times,serif" font-size="14.00">DAC</text>
</g>
<!-- MCU&#45;&gt;DAC -->
<g id="edge4" class="edge"><title>MCU&#45;&gt;DAC</title>
<path fill="none" stroke="black" d="M232.7,-100.567C249.817,-91.5017 274.624,-79.9709 298,-75 331.248,-67.9298 370.029,-68.3891 397.998,-70.2037"/>
<polygon fill="black" stroke="black" points="397.924,-73.7076 408.155,-70.9526 398.439,-66.7266 397.924,-73.7076"/>
<text text-anchor="middle" x="339" y="-78.8" font-family="Times,serif" font-size="14.00">SPI</text>
</g>
<!-- ESP32 -->
<g id="node4" class="node"><title>ESP32</title>
<ellipse fill="none" stroke="black" cx="437" cy="-246" rx="34.394" ry="18"/>
<text text-anchor="middle" x="437" y="-242.3" font-family="Times,serif" font-size="14.00">ESP32</text>
</g>
<!-- MCU&#45;&gt;ESP32 -->
<g id="edge5" class="edge"><title>MCU&#45;&gt;ESP32</title>
<path fill="none" stroke="black" d="M241.448,-130.998C284.218,-156.28 361.673,-202.065 404.83,-227.575"/>
<polygon fill="black" stroke="black" points="242.963,-127.828 232.574,-125.753 239.401,-133.854 242.963,-127.828"/>
<polygon fill="black" stroke="black" points="403.104,-230.62 413.493,-232.696 406.666,-224.594 403.104,-230.62"/>
<text text-anchor="middle" x="339" y="-213.8" font-family="Times,serif" font-size="14.00">SPI</text>
</g>
<!-- FLASH -->
<g id="node6" class="node"><title>FLASH</title>
<ellipse fill="none" stroke="black" cx="437" cy="-18" rx="38.1938" ry="18"/>
<text text-anchor="middle" x="437" y="-14.3" font-family="Times,serif" font-size="14.00">FLASH</text>
</g>
<!-- MCU&#45;&gt;FLASH -->
<g id="edge6" class="edge"><title>MCU&#45;&gt;FLASH</title>
<path fill="none" stroke="black" d="M235.828,-91.3538C252.415,-77.931 275.285,-61.3334 298,-51 327.128,-37.749 362.229,-29.4488 389.74,-24.4871"/>
<polygon fill="black" stroke="black" points="233.23,-88.9603 227.76,-98.0337 237.695,-94.352 233.23,-88.9603"/>
<polygon fill="black" stroke="black" points="390.621,-27.8872 399.885,-22.7455 389.437,-20.9881 390.621,-27.8872"/>
<text text-anchor="middle" x="339" y="-54.8" font-family="Times,serif" font-size="14.00">SPI?</text>
</g>
<!-- PC -->
<g id="node13" class="node"><title>PC</title>
<ellipse fill="none" stroke="#cccccc" cx="437" cy="-129" rx="27" ry="18"/>
<text text-anchor="middle" x="437" y="-125.3" font-family="Times,serif" font-size="14.00">PC</text>
</g>
<!-- MCU&#45;&gt;PC -->
<g id="edge15" class="edge"><title>MCU&#45;&gt;PC</title>
<path fill="none" stroke="black" d="M251.554,-115.884C293.838,-118.891 359.484,-123.559 399.993,-126.439"/>
<polygon fill="black" stroke="black" points="251.568,-112.376 241.345,-115.158 251.071,-119.358 251.568,-112.376"/>
<polygon fill="black" stroke="black" points="399.745,-129.931 409.968,-127.149 400.242,-122.948 399.745,-129.931"/>
<text text-anchor="middle" x="339" y="-127.8" font-family="Times,serif" font-size="14.00">ethernet</text>
</g>
<!-- MCU&#45;&gt;PC -->
<g id="edge16" class="edge"><title>MCU&#45;&gt;PC</title>
<path fill="none" stroke="black" d="M248.791,-103.418C283.406,-96.2047 335.822,-89.2397 380,-100 389.765,-102.378 399.727,-106.78 408.49,-111.448"/>
<polygon fill="black" stroke="black" points="247.665,-100.082 238.649,-105.645 249.167,-106.919 247.665,-100.082"/>
<polygon fill="black" stroke="black" points="407.036,-114.647 417.461,-116.535 410.489,-108.558 407.036,-114.647"/>
<text text-anchor="middle" x="339" y="-103.8" font-family="Times,serif" font-size="14.00">USB</text>
</g>
<!-- BT_sink -->
<g id="node11" class="node"><title>BT_sink</title>
<ellipse fill="none" stroke="#cccccc" cx="655" cy="-246" rx="61.1893" ry="18"/>
<text text-anchor="middle" x="655" y="-242.3" font-family="Times,serif" font-size="14.00">BT audio sink</text>
</g>
<!-- ESP32&#45;&gt;BT_sink -->
<g id="edge12" class="edge"><title>ESP32&#45;&gt;BT_sink</title>
<path fill="none" stroke="black" d="M471.75,-246C501.467,-246 545.72,-246 583.178,-246"/>
<polygon fill="black" stroke="black" points="583.545,-249.5 593.545,-246 583.545,-242.5 583.545,-249.5"/>
<text text-anchor="middle" x="535" y="-249.8" font-family="Times,serif" font-size="14.00">bluetooth EDR</text>
</g>
<!-- OPAMP1 -->
<g id="node16" class="node"><title>OPAMP1</title>
<ellipse fill="none" stroke="black" cx="655" cy="-88" rx="46.2923" ry="18"/>
<text text-anchor="middle" x="655" y="-84.3" font-family="Times,serif" font-size="14.00">OPAMP1</text>
</g>
<!-- DAC&#45;&gt;OPAMP1 -->
<g id="edge2" class="edge"><title>DAC&#45;&gt;OPAMP1</title>
<path fill="none" stroke="black" d="M466.238,-75.8303C499.833,-78.0077 556.692,-81.693 599.057,-84.4389"/>
<polygon fill="black" stroke="black" points="599.015,-87.9434 609.22,-85.0976 599.467,-80.958 599.015,-87.9434"/>
</g>
<!-- JACK0 -->
<g id="node7" class="node"><title>JACK0</title>
<ellipse fill="none" stroke="black" cx="1164" cy="-154" rx="87.9851" ry="18"/>
<text text-anchor="middle" x="1164" y="-150.3" font-family="Times,serif" font-size="14.00">jack0 (6.35 mm jack)</text>
</g>
<!-- OPAMP0 -->
<g id="node15" class="node"><title>OPAMP0</title>
<ellipse fill="none" stroke="black" cx="1336" cy="-182" rx="46.2923" ry="18"/>
<text text-anchor="middle" x="1336" y="-178.3" font-family="Times,serif" font-size="14.00">OPAMP0</text>
</g>
<!-- JACK0&#45;&gt;OPAMP0 -->
<g id="edge8" class="edge"><title>JACK0&#45;&gt;OPAMP0</title>
<path fill="none" stroke="black" d="M1233.17,-165.227C1249.84,-167.973 1267.41,-170.867 1283.17,-173.464"/>
<polygon fill="black" stroke="black" points="1282.81,-176.951 1293.24,-175.122 1283.95,-170.044 1282.81,-176.951"/>
</g>
<!-- JACK1 -->
<g id="node8" class="node"><title>JACK1</title>
<ellipse fill="none" stroke="black" cx="842" cy="-97" rx="87.9851" ry="18"/>
<text text-anchor="middle" x="842" y="-93.3" font-family="Times,serif" font-size="14.00">jack1 (6.35 mm jack)</text>
</g>
<!-- AMP -->
<g id="node10" class="node"><title>AMP</title>
<ellipse fill="none" stroke="#cccccc" cx="1003" cy="-100" rx="27" ry="18"/>
<text text-anchor="middle" x="1003" y="-96.3" font-family="Times,serif" font-size="14.00">amp</text>
</g>
<!-- JACK1&#45;&gt;AMP -->
<g id="edge13" class="edge"><title>JACK1&#45;&gt;AMP</title>
<path fill="none" stroke="black" d="M929.479,-98.6317C942.153,-98.8708 954.588,-99.1054 965.483,-99.311"/>
<polygon fill="black" stroke="black" points="965.752,-102.817 975.817,-99.506 965.885,-95.8179 965.752,-102.817"/>
</g>
<!-- PICKUP -->
<g id="node9" class="node"><title>PICKUP</title>
<ellipse fill="none" stroke="#cccccc" cx="1003" cy="-154" rx="34.394" ry="18"/>
<text text-anchor="middle" x="1003" y="-150.3" font-family="Times,serif" font-size="14.00">pickup</text>
</g>
<!-- PICKUP&#45;&gt;JACK0 -->
<g id="edge10" class="edge"><title>PICKUP&#45;&gt;JACK0</title>
<path fill="none" stroke="black" d="M1037.72,-154C1046.27,-154 1055.88,-154 1065.89,-154"/>
<polygon fill="black" stroke="black" points="1066.01,-157.5 1076.01,-154 1066.01,-150.5 1066.01,-157.5"/>
</g>
<!-- AMP&#45;&gt;JACK0 -->
<g id="edge11" class="edge"><title>AMP&#45;&gt;JACK0</title>
<path fill="none" stroke="black" d="M1027.46,-107.968C1048.63,-115.159 1080.6,-126.014 1108.17,-135.377"/>
<polygon fill="black" stroke="black" points="1107.12,-138.717 1117.71,-138.618 1109.37,-132.088 1107.12,-138.717"/>
</g>
<!-- BT_source -->
<g id="node12" class="node"><title>BT_source</title>
<ellipse fill="none" stroke="#cccccc" cx="210" cy="-300" rx="69.5877" ry="18"/>
<text text-anchor="middle" x="210" y="-296.3" font-family="Times,serif" font-size="14.00">BT audio source</text>
</g>
<!-- BT_source&#45;&gt;ESP32 -->
<g id="edge9" class="edge"><title>BT_source&#45;&gt;ESP32</title>
<path fill="none" stroke="black" d="M268.132,-289.979C301.073,-283.751 343.137,-275.03 380,-265 386.111,-263.337 392.529,-261.373 398.75,-259.348"/>
<polygon fill="black" stroke="black" points="399.922,-262.647 408.293,-256.152 397.699,-256.009 399.922,-262.647"/>
<text text-anchor="middle" x="339" y="-286.8" font-family="Times,serif" font-size="14.00">bluetooth EDR</text>
</g>
<!-- SMARTPHONE -->
<g id="node14" class="node"><title>SMARTPHONE</title>
<ellipse fill="none" stroke="#cccccc" cx="210" cy="-246" rx="51.9908" ry="18"/>
<text text-anchor="middle" x="210" y="-242.3" font-family="Times,serif" font-size="14.00">smartphone</text>
</g>
<!-- SMARTPHONE&#45;&gt;ESP32 -->
<g id="edge14" class="edge"><title>SMARTPHONE&#45;&gt;ESP32</title>
<path fill="none" stroke="black" d="M272.145,-246C310.075,-246 357.922,-246 392.102,-246"/>
<polygon fill="black" stroke="black" points="272.056,-242.5 262.056,-246 272.056,-249.5 272.056,-242.5"/>
<polygon fill="black" stroke="black" points="392.245,-249.5 402.245,-246 392.245,-242.5 392.245,-249.5"/>
<text text-anchor="middle" x="339" y="-249.8" font-family="Times,serif" font-size="14.00">BLE</text>
</g>
<!-- OPAMP0&#45;&gt;ADC -->
<g id="edge1" class="edge"><title>OPAMP0&#45;&gt;ADC</title>
<path fill="none" stroke="black" d="M1293.21,-188.908C1258.88,-193.984 1208.92,-200 1165,-200 209,-200 209,-200 209,-200 163.53,-200 112.085,-189.311 78.6801,-180.912"/>
<polygon fill="black" stroke="black" points="79.4761,-177.503 68.9187,-178.393 77.7271,-184.281 79.4761,-177.503"/>
</g>
<!-- OPAMP1&#45;&gt;JACK1 -->
<g id="edge7" class="edge"><title>OPAMP1&#45;&gt;JACK1</title>
<path fill="none" stroke="black" d="M701.256,-90.2016C714.945,-90.8676 730.521,-91.6253 746.185,-92.3874"/>
<polygon fill="black" stroke="black" points="746.315,-95.8977 756.473,-92.8879 746.655,-88.906 746.315,-95.8977"/>
</g>
</g>
</svg>
