<?xml version="1.0" encoding="UTF-8" standalone="no"?>
<!DOCTYPE svg PUBLIC "-//W3C//DTD SVG 1.1//EN"
 "http://www.w3.org/Graphics/SVG/1.1/DTD/svg11.dtd">
<!-- Generated by graphviz version 2.30.1 (20180828.1746)
 -->
<!-- Title: %3 Pages: 1 -->
<svg width="1120pt" height="276pt"
 viewBox="0.00 0.00 1120.00 276.00" xmlns="http://www.w3.org/2000/svg" xmlns:xlink="http://www.w3.org/1999/xlink">
<g id="graph0" class="graph" transform="scale(1 1) rotate(0) translate(4 272)">
<title>%3</title>
<polygon fill="white" stroke="white" points="-4,5 -4,-272 1117,-272 1117,5 -4,5"/>
<!-- ADC -->
<g id="node1" class="node"><title>ADC</title>
<ellipse fill="none" stroke="black" cx="52" cy="-142" rx="29.4969" ry="18"/>
<text text-anchor="middle" x="52" y="-138.3" font-family="Times,serif" font-size="14.00">ADC</text>
</g>
<!-- MCU -->
<g id="node2" class="node"><title>MCU</title>
<ellipse fill="none" stroke="black" cx="230" cy="-69" rx="31.3957" ry="18"/>
<text text-anchor="middle" x="230" y="-65.3" font-family="Times,serif" font-size="14.00">MCU</text>
</g>
<!-- ADC&#45;&gt;MCU -->
<g id="edge1" class="edge"><title>ADC&#45;&gt;MCU</title>
<path fill="none" stroke="black" d="M76.7361,-132.155C107.183,-119.526 160.197,-97.5377 194.943,-83.1259"/>
<polygon fill="black" stroke="black" points="196.329,-86.3402 204.225,-79.276 193.647,-79.8743 196.329,-86.3402"/>
<text text-anchor="middle" x="132" y="-115.8" font-family="Times,serif" font-size="14.00">SPI</text>
</g>
<!-- DAC -->
<g id="node4" class="node"><title>DAC</title>
<ellipse fill="none" stroke="black" cx="457" cy="-75" rx="29.4969" ry="18"/>
<text text-anchor="middle" x="457" y="-71.3" font-family="Times,serif" font-size="14.00">DAC</text>
</g>
<!-- MCU&#45;&gt;DAC -->
<g id="edge2" class="edge"><title>MCU&#45;&gt;DAC</title>
<path fill="none" stroke="black" d="M259.573,-63.0624C293.312,-56.9515 351.035,-49.324 400,-57 407.352,-58.1526 415.057,-60.1076 422.317,-62.3148"/>
<polygon fill="black" stroke="black" points="421.275,-65.6563 431.867,-65.4293 423.445,-59.0012 421.275,-65.6563"/>
<text text-anchor="middle" x="359" y="-60.8" font-family="Times,serif" font-size="14.00">SPI</text>
</g>
<!-- ESP32 -->
<g id="node3" class="node"><title>ESP32</title>
<ellipse fill="none" stroke="black" cx="457" cy="-130" rx="34.394" ry="18"/>
<text text-anchor="middle" x="457" y="-126.3" font-family="Times,serif" font-size="14.00">ESP32</text>
</g>
<!-- MCU&#45;&gt;ESP32 -->
<g id="edge3" class="edge"><title>MCU&#45;&gt;ESP32</title>
<path fill="none" stroke="black" d="M269.398,-77.5784C303.812,-85.4951 355.569,-97.9663 400,-111 406.077,-112.783 412.477,-114.809 418.691,-116.859"/>
<polygon fill="black" stroke="black" points="269.83,-74.087 259.302,-75.2721 268.271,-80.9112 269.83,-74.087"/>
<polygon fill="black" stroke="black" points="417.637,-120.197 428.231,-120.067 419.868,-113.562 417.637,-120.197"/>
<text text-anchor="middle" x="359" y="-114.8" font-family="Times,serif" font-size="14.00">SPI</text>
</g>
<!-- FLASH -->
<g id="node5" class="node"><title>FLASH</title>
<ellipse fill="none" stroke="black" cx="457" cy="-18" rx="38.1938" ry="18"/>
<text text-anchor="middle" x="457" y="-14.3" font-family="Times,serif" font-size="14.00">FLASH</text>
</g>
<!-- MCU&#45;&gt;FLASH -->
<g id="edge4" class="edge"><title>MCU&#45;&gt;FLASH</title>
<path fill="none" stroke="black" d="M264.262,-53.7413C280.21,-47.0147 299.772,-39.6071 318,-35 347.545,-27.5326 381.51,-23.2959 408.35,-20.9196"/>
<polygon fill="black" stroke="black" points="262.635,-50.6315 254.843,-57.8104 265.411,-57.0575 262.635,-50.6315"/>
<polygon fill="black" stroke="black" points="408.958,-24.3814 418.635,-20.0684 408.381,-17.4052 408.958,-24.3814"/>
<text text-anchor="middle" x="359" y="-38.8" font-family="Times,serif" font-size="14.00">SPI?</text>
</g>
<!-- BT_sink -->
<g id="node10" class="node"><title>BT_sink</title>
<ellipse fill="none" stroke="#cccccc" cx="702" cy="-130" rx="61.1893" ry="18"/>
<text text-anchor="middle" x="702" y="-126.3" font-family="Times,serif" font-size="14.00">BT audio sink</text>
</g>
<!-- ESP32&#45;&gt;BT_sink -->
<g id="edge9" class="edge"><title>ESP32&#45;&gt;BT_sink</title>
<path fill="none" stroke="black" d="M491.533,-130C527.241,-130 584.797,-130 630.549,-130"/>
<polygon fill="black" stroke="black" points="630.713,-133.5 640.712,-130 630.712,-126.5 630.713,-133.5"/>
<text text-anchor="middle" x="555" y="-133.8" font-family="Times,serif" font-size="14.00">bluetooth EDR</text>
</g>
<!-- JACK1 -->
<g id="node7" class="node"><title>JACK1</title>
<ellipse fill="none" stroke="black" cx="702" cy="-76" rx="87.9851" ry="18"/>
<text text-anchor="middle" x="702" y="-72.3" font-family="Times,serif" font-size="14.00">jack1 (6.35 mm jack)</text>
</g>
<!-- DAC&#45;&gt;JACK1 -->
<g id="edge10" class="edge"><title>DAC&#45;&gt;JACK1</title>
<path fill="none" stroke="black" d="M486.351,-75.1167C515.269,-75.2357 561.782,-75.4271 604.128,-75.6013"/>
<polygon fill="black" stroke="black" points="604.207,-79.1016 614.221,-75.6429 604.235,-72.1017 604.207,-79.1016"/>
</g>
<!-- JACK0 -->
<g id="node6" class="node"><title>JACK0</title>
<ellipse fill="none" stroke="black" cx="1024" cy="-131" rx="87.9851" ry="18"/>
<text text-anchor="middle" x="1024" y="-127.3" font-family="Times,serif" font-size="14.00">jack0 (6.35 mm jack)</text>
</g>
<!-- JACK0&#45;&gt;ADC -->
<g id="edge8" class="edge"><title>JACK0&#45;&gt;ADC</title>
<path fill="none" stroke="black" d="M987.536,-147.477C955.858,-160.676 907.823,-177 864,-177 229,-177 229,-177 229,-177 179.237,-177 123.054,-163.374 87.8354,-153.126"/>
<polygon fill="black" stroke="black" points="88.6285,-149.71 78.0452,-150.206 86.6279,-156.418 88.6285,-149.71"/>
</g>
<!-- AMP -->
<g id="node9" class="node"><title>AMP</title>
<ellipse fill="none" stroke="#cccccc" cx="863" cy="-77" rx="27" ry="18"/>
<text text-anchor="middle" x="863" y="-73.3" font-family="Times,serif" font-size="14.00">amp</text>
</g>
<!-- JACK1&#45;&gt;AMP -->
<g id="edge11" class="edge"><title>JACK1&#45;&gt;AMP</title>
<path fill="none" stroke="black" d="M789.943,-76.5468C802.45,-76.6255 814.708,-76.7026 825.466,-76.7702"/>
<polygon fill="black" stroke="black" points="825.656,-80.2714 835.678,-76.8344 825.7,-73.2715 825.656,-80.2714"/>
</g>
<!-- PICKUP -->
<g id="node8" class="node"><title>PICKUP</title>
<ellipse fill="none" stroke="#cccccc" cx="863" cy="-131" rx="34.394" ry="18"/>
<text text-anchor="middle" x="863" y="-127.3" font-family="Times,serif" font-size="14.00">pickup</text>
</g>
<!-- PICKUP&#45;&gt;JACK0 -->
<g id="edge6" class="edge"><title>PICKUP&#45;&gt;JACK0</title>
<path fill="none" stroke="black" d="M897.72,-131C906.266,-131 915.883,-131 925.891,-131"/>
<polygon fill="black" stroke="black" points="926.006,-134.5 936.006,-131 926.006,-127.5 926.006,-134.5"/>
</g>
<!-- AMP&#45;&gt;JACK0 -->
<g id="edge7" class="edge"><title>AMP&#45;&gt;JACK0</title>
<path fill="none" stroke="black" d="M887.461,-84.9679C908.634,-92.1587 940.596,-103.014 968.166,-112.377"/>
<polygon fill="black" stroke="black" points="967.115,-115.717 977.71,-115.618 969.366,-109.088 967.115,-115.717"/>
</g>
<!-- BT_source -->
<g id="node11" class="node"><title>BT_source</title>
<ellipse fill="none" stroke="#cccccc" cx="230" cy="-131" rx="69.5877" ry="18"/>
<text text-anchor="middle" x="230" y="-127.3" font-family="Times,serif" font-size="14.00">BT audio source</text>
</g>
<!-- BT_source&#45;&gt;ESP32 -->
<g id="edge5" class="edge"><title>BT_source&#45;&gt;ESP32</title>
<path fill="none" stroke="black" d="M299.73,-130.695C336.305,-130.532 380.191,-130.337 412.132,-130.195"/>
<polygon fill="black" stroke="black" points="412.494,-133.693 422.479,-130.149 412.463,-126.694 412.494,-133.693"/>
<text text-anchor="middle" x="359" y="-133.8" font-family="Times,serif" font-size="14.00">bluetooth EDR</text>
</g>
<!-- PC -->
<g id="node12" class="node"><title>PC</title>
<ellipse fill="none" stroke="#cccccc" cx="52" cy="-196" rx="27" ry="18"/>
<text text-anchor="middle" x="52" y="-192.3" font-family="Times,serif" font-size="14.00">PC</text>
</g>
<!-- SMARTPHONE -->
<g id="node13" class="node"><title>SMARTPHONE</title>
<ellipse fill="none" stroke="#cccccc" cx="52" cy="-250" rx="51.9908" ry="18"/>
<text text-anchor="middle" x="52" y="-246.3" font-family="Times,serif" font-size="14.00">smartphone</text>
</g>
</g>
</svg>
