<?xml version="1.0" encoding="UTF-8" standalone="no"?>
<!DOCTYPE svg PUBLIC "-//W3C//DTD SVG 1.1//EN"
 "http://www.w3.org/Graphics/SVG/1.1/DTD/svg11.dtd">
<!-- Generated by graphviz version 2.30.1 (20180828.1746)
 -->
<!-- Title: %3 Pages: 1 -->
<svg width="1074pt" height="294pt"
 viewBox="0.00 0.00 1074.00 294.00" xmlns="http://www.w3.org/2000/svg" xmlns:xlink="http://www.w3.org/1999/xlink">
<g id="graph0" class="graph" transform="scale(1 1) rotate(0) translate(4 290)">
<title>%3</title>
<polygon fill="white" stroke="white" points="-4,5 -4,-290 1071,-290 1071,5 -4,5"/>
<!-- ADC -->
<g id="node1" class="node"><title>ADC</title>
<ellipse fill="none" stroke="black" cx="29" cy="-234" rx="29.4969" ry="18"/>
<text text-anchor="middle" x="29" y="-230.3" font-family="Times,serif" font-size="14.00">ADC</text>
</g>
<!-- MCU -->
<g id="node2" class="node"><title>MCU</title>
<ellipse fill="none" stroke="black" cx="184" cy="-107" rx="31.3957" ry="18"/>
<text text-anchor="middle" x="184" y="-103.3" font-family="Times,serif" font-size="14.00">MCU</text>
</g>
<!-- ADC&#45;&gt;MCU -->
<g id="edge1" class="edge"><title>ADC&#45;&gt;MCU</title>
<path fill="none" stroke="black" d="M45.7575,-219.218C62.3844,-203.791 89.5198,-179.095 114,-159 127.283,-148.097 142.495,-136.538 155.251,-127.095"/>
<polygon fill="black" stroke="black" points="157.652,-129.673 163.635,-120.929 153.505,-124.034 157.652,-129.673"/>
<text text-anchor="middle" x="86" y="-194.8" font-family="Times,serif" font-size="14.00">SPI</text>
</g>
<!-- DAC -->
<g id="node4" class="node"><title>DAC</title>
<ellipse fill="none" stroke="black" cx="411" cy="-83" rx="29.4969" ry="18"/>
<text text-anchor="middle" x="411" y="-79.3" font-family="Times,serif" font-size="14.00">DAC</text>
</g>
<!-- MCU&#45;&gt;DAC -->
<g id="edge2" class="edge"><title>MCU&#45;&gt;DAC</title>
<path fill="none" stroke="black" d="M213.02,-100.009C229.978,-96.0778 252.102,-91.4747 272,-89 305.446,-84.8403 343.762,-83.4395 371.52,-83.0221"/>
<polygon fill="black" stroke="black" points="371.65,-86.521 381.609,-82.9066 371.57,-79.5214 371.65,-86.521"/>
<text text-anchor="middle" x="313" y="-92.8" font-family="Times,serif" font-size="14.00">SPI</text>
</g>
<!-- ESP32 -->
<g id="node3" class="node"><title>ESP32</title>
<ellipse fill="none" stroke="black" cx="411" cy="-202" rx="34.394" ry="18"/>
<text text-anchor="middle" x="411" y="-198.3" font-family="Times,serif" font-size="14.00">ESP32</text>
</g>
<!-- MCU&#45;&gt;ESP32 -->
<g id="edge3" class="edge"><title>MCU&#45;&gt;ESP32</title>
<path fill="none" stroke="black" d="M219.531,-121.086C235.471,-127.538 254.667,-135.238 272,-142 308.297,-156.161 318.419,-157.126 354,-173 361.748,-176.457 369.937,-180.478 377.589,-184.405"/>
<polygon fill="black" stroke="black" points="220.654,-117.764 210.072,-117.249 218.023,-124.251 220.654,-117.764"/>
<polygon fill="black" stroke="black" points="376.107,-187.58 386.592,-189.105 379.347,-181.374 376.107,-187.58"/>
<text text-anchor="middle" x="313" y="-176.8" font-family="Times,serif" font-size="14.00">SPI</text>
</g>
<!-- FLASH -->
<g id="node5" class="node"><title>FLASH</title>
<ellipse fill="none" stroke="black" cx="411" cy="-137" rx="38.1938" ry="18"/>
<text text-anchor="middle" x="411" y="-133.3" font-family="Times,serif" font-size="14.00">FLASH</text>
</g>
<!-- MCU&#45;&gt;FLASH -->
<g id="edge4" class="edge"><title>MCU&#45;&gt;FLASH</title>
<path fill="none" stroke="black" d="M225.082,-111.071C259.381,-114.715 310.034,-120.479 354,-127 357.633,-127.539 361.392,-128.132 365.164,-128.753"/>
<polygon fill="black" stroke="black" points="225.299,-107.575 214.988,-110.01 224.567,-114.536 225.299,-107.575"/>
<polygon fill="black" stroke="black" points="364.656,-132.217 375.101,-130.44 365.828,-125.315 364.656,-132.217"/>
<text text-anchor="middle" x="313" y="-130.8" font-family="Times,serif" font-size="14.00">SPI?</text>
</g>
<!-- PC -->
<g id="node12" class="node"><title>PC</title>
<ellipse fill="none" stroke="#cccccc" cx="411" cy="-18" rx="27" ry="18"/>
<text text-anchor="middle" x="411" y="-14.3" font-family="Times,serif" font-size="14.00">PC</text>
</g>
<!-- MCU&#45;&gt;PC -->
<g id="edge13" class="edge"><title>MCU&#45;&gt;PC</title>
<path fill="none" stroke="black" d="M216.59,-90.0799C232.892,-81.6852 253.245,-71.7181 272,-64 306.84,-49.6629 347.937,-36.4146 376.167,-27.8547"/>
<polygon fill="black" stroke="black" points="214.756,-87.0889 207.503,-94.8119 217.989,-93.2975 214.756,-87.0889"/>
<polygon fill="black" stroke="black" points="377.378,-31.1457 385.951,-24.9199 375.367,-24.4409 377.378,-31.1457"/>
<text text-anchor="middle" x="313" y="-67.8" font-family="Times,serif" font-size="14.00">ethernet</text>
</g>
<!-- MCU&#45;&gt;PC -->
<g id="edge14" class="edge"><title>MCU&#45;&gt;PC</title>
<path fill="none" stroke="black" d="M200.744,-81.3912C215.915,-59.398 241.087,-29.2132 272,-16 304.966,-1.90903 346.539,-4.97285 375.396,-9.95204"/>
<polygon fill="black" stroke="black" points="197.676,-79.6842 195.054,-89.9495 203.506,-83.5598 197.676,-79.6842"/>
<polygon fill="black" stroke="black" points="374.936,-13.4271 385.412,-11.8449 376.236,-6.54885 374.936,-13.4271"/>
<text text-anchor="middle" x="313" y="-19.8" font-family="Times,serif" font-size="14.00">USB</text>
</g>
<!-- BT_sink -->
<g id="node10" class="node"><title>BT_sink</title>
<ellipse fill="none" stroke="#cccccc" cx="656" cy="-202" rx="61.1893" ry="18"/>
<text text-anchor="middle" x="656" y="-198.3" font-family="Times,serif" font-size="14.00">BT audio sink</text>
</g>
<!-- ESP32&#45;&gt;BT_sink -->
<g id="edge9" class="edge"><title>ESP32&#45;&gt;BT_sink</title>
<path fill="none" stroke="black" d="M445.533,-202C481.241,-202 538.797,-202 584.549,-202"/>
<polygon fill="black" stroke="black" points="584.713,-205.5 594.712,-202 584.712,-198.5 584.713,-205.5"/>
<text text-anchor="middle" x="509" y="-205.8" font-family="Times,serif" font-size="14.00">bluetooth EDR</text>
</g>
<!-- JACK1 -->
<g id="node7" class="node"><title>JACK1</title>
<ellipse fill="none" stroke="black" cx="656" cy="-132" rx="87.9851" ry="18"/>
<text text-anchor="middle" x="656" y="-128.3" font-family="Times,serif" font-size="14.00">jack1 (6.35 mm jack)</text>
</g>
<!-- DAC&#45;&gt;JACK1 -->
<g id="edge10" class="edge"><title>DAC&#45;&gt;JACK1</title>
<path fill="none" stroke="black" d="M438.934,-88.4311C473.384,-95.3779 534.38,-107.678 582.799,-117.441"/>
<polygon fill="black" stroke="black" points="582.119,-120.874 592.614,-119.42 583.503,-114.012 582.119,-120.874"/>
</g>
<!-- JACK0 -->
<g id="node6" class="node"><title>JACK0</title>
<ellipse fill="none" stroke="black" cx="978" cy="-233" rx="87.9851" ry="18"/>
<text text-anchor="middle" x="978" y="-229.3" font-family="Times,serif" font-size="14.00">jack0 (6.35 mm jack)</text>
</g>
<!-- JACK0&#45;&gt;ADC -->
<g id="edge8" class="edge"><title>JACK0&#45;&gt;ADC</title>
<path fill="none" stroke="black" d="M946.038,-249.915C914.711,-265.426 864.41,-286 818,-286 183,-286 183,-286 183,-286 138.446,-286 90.2891,-265.988 60.1464,-250.793"/>
<polygon fill="black" stroke="black" points="61.5087,-247.557 51.0201,-246.061 58.2862,-253.771 61.5087,-247.557"/>
</g>
<!-- AMP -->
<g id="node9" class="node"><title>AMP</title>
<ellipse fill="none" stroke="#cccccc" cx="817" cy="-166" rx="27" ry="18"/>
<text text-anchor="middle" x="817" y="-162.3" font-family="Times,serif" font-size="14.00">amp</text>
</g>
<!-- JACK1&#45;&gt;AMP -->
<g id="edge11" class="edge"><title>JACK1&#45;&gt;AMP</title>
<path fill="none" stroke="black" d="M717.565,-144.951C739.039,-149.543 762.469,-154.553 781.082,-158.533"/>
<polygon fill="black" stroke="black" points="780.373,-161.961 790.884,-160.629 781.837,-155.116 780.373,-161.961"/>
</g>
<!-- PICKUP -->
<g id="node8" class="node"><title>PICKUP</title>
<ellipse fill="none" stroke="#cccccc" cx="817" cy="-233" rx="34.394" ry="18"/>
<text text-anchor="middle" x="817" y="-229.3" font-family="Times,serif" font-size="14.00">pickup</text>
</g>
<!-- PICKUP&#45;&gt;JACK0 -->
<g id="edge6" class="edge"><title>PICKUP&#45;&gt;JACK0</title>
<path fill="none" stroke="black" d="M851.72,-233C860.266,-233 869.883,-233 879.891,-233"/>
<polygon fill="black" stroke="black" points="880.006,-236.5 890.006,-233 880.006,-229.5 880.006,-236.5"/>
</g>
<!-- AMP&#45;&gt;JACK0 -->
<g id="edge7" class="edge"><title>AMP&#45;&gt;JACK0</title>
<path fill="none" stroke="black" d="M840.108,-175.316C863.053,-184.985 899.656,-200.408 929.241,-212.875"/>
<polygon fill="black" stroke="black" points="928,-216.15 938.574,-216.808 930.718,-209.699 928,-216.15"/>
</g>
<!-- BT_source -->
<g id="node11" class="node"><title>BT_source</title>
<ellipse fill="none" stroke="#cccccc" cx="184" cy="-240" rx="69.5877" ry="18"/>
<text text-anchor="middle" x="184" y="-236.3" font-family="Times,serif" font-size="14.00">BT audio source</text>
</g>
<!-- BT_source&#45;&gt;ESP32 -->
<g id="edge5" class="edge"><title>BT_source&#45;&gt;ESP32</title>
<path fill="none" stroke="black" d="M247.861,-232.652C279.784,-228.521 319.099,-222.822 354,-216 359.348,-214.955 364.951,-213.722 370.458,-212.428"/>
<polygon fill="black" stroke="black" points="371.304,-215.825 380.194,-210.062 369.65,-209.023 371.304,-215.825"/>
<text text-anchor="middle" x="313" y="-231.8" font-family="Times,serif" font-size="14.00">bluetooth EDR</text>
</g>
<!-- SMARTPHONE -->
<g id="node13" class="node"><title>SMARTPHONE</title>
<ellipse fill="none" stroke="#cccccc" cx="184" cy="-186" rx="51.9908" ry="18"/>
<text text-anchor="middle" x="184" y="-182.3" font-family="Times,serif" font-size="14.00">smartphone</text>
</g>
<!-- SMARTPHONE&#45;&gt;ESP32 -->
<g id="edge12" class="edge"><title>SMARTPHONE&#45;&gt;ESP32</title>
<path fill="none" stroke="black" d="M245.362,-190.292C283.544,-193.008 332.014,-196.454 366.452,-198.903"/>
<polygon fill="black" stroke="black" points="245.437,-186.789 235.214,-189.571 244.941,-193.771 245.437,-186.789"/>
<polygon fill="black" stroke="black" points="366.439,-202.411 376.662,-199.629 366.935,-195.429 366.439,-202.411"/>
<text text-anchor="middle" x="313" y="-200.8" font-family="Times,serif" font-size="14.00">BLE</text>
</g>
</g>
</svg>
